<svg height="400" viewBox="0 0 400 400" width="400" xmlns="http://www.w3.org/2000/svg"><path d="m206 16.56c49.38281 1.081324 102.91097 12.407421 137.65777 50.228711 27.8976 28.616606 40.29521 69.775379 39.42973 109.127539-1.525 11.41405 1.0773 17.61214-16.03864 13.28869-3.46839 50.65394-28.52714 103.76092-66.13214 137.88647-26.31603 25.80462-59.17719 44.63869-94.65969 54.59031-14.89808 3.6923-30.07469-7.16417-44.27515-11.57922-45.14-20.99197-84.112726-56.7518-107.08188-101.1025-13.662631-26.10673-19.512941-55.38822-21.9-84.5-11.440694-.27017-20.56661-9.15929-15.961094-23.0175 2.841946-43.84139 23.103128-87.994438 60.332344-112.945 29.49935-21.396211 66.53583-27.639897 101.93387-31.710352 8.89014-.432769 17.79749-.425966 26.69488-.267148zm-39.5 18.65c-15.54855 2.188009-31.05691 4.851174-45.92725 10.130469-17.53131 6.689216-35.036481 15.052132-47.963238 29.079101-9.918764 9.391536-18.80476 20.076535-24.427012 32.62293-5.022064 9.61599-8.69088 20.64674-10.882441 31.52035-1.111653 7.22134-8.866381 28.82153 6.259629 19.10528 28.004419-13.29455 56.550782-26.38298 81.574702-44.89793 9.79297-6.6029 23.62029-19.467401 26.14373-1.3702 7.47302 27.98065 19.16747 55.63286 38.51747 77.57266 10.06419 15.80235 23.23935-1.7266 29.41863-11.22246 14.97246-21.42009 24.24876-46.20235 31.17578-71.2502 3.88129-16.188065 19.91492 5.70929 30.22 10.85 23.87212 15.88502 49.90295 28.19408 75.83172 40.31812 15.99928 9.50475 6.48285-13.26893 5.98828-21.16156-5.78589-25.14758-18.54883-49.063777-38.63672-65.693435-14.01421-13.222711-32.11702-21.257788-50.11213-27.452539-34.14997-10.135934-70.32054-11.107912-105.64803-8.427461zm-114.68625 137.5225c-4.018362 14.39554.611387 29.99535 2.507344 44.58531 9.552785 49.25748 41.677894 92.19924 83.146876 119.625 18.37345 12.90392 39.08856 22.57671 60.7764 28.20235 13.32851-.38104 24.99218-8.32089 37.44563-12.31266 51.4886-25.4917 95.05612-71.43198 108.41875-128.35875 3.35966-16.395 6.81598-33.32566 5.12609-50.09344-9.73782-8.49191-24.69821-12.12182-36.11156-19.31437-17.03662-8.5187-33.56864-18.05682-49.12328-29.06594-7.90534 11.54005-9.86528 26.02849-16.92437 38.13859-10.08649 19.362-22.93449 38.58577-41.7136 50.37641-14.05957 5.17527-23.91201-11.58699-32.66531-19.8516-16.22495-18.96137-25.89579-44.72274-34.9794-67.55065-24.97558 14.38017-59.33677 31.74095-85.90357 45.61975zm249.00625 86.1975c3.81481 1.339 7.21256 6.101 5.62271 10.13429-3.77258 7.9143-9.69907 14.55845-15.3878 21.14151-8.20055 8.81566-16.81625 17.28252-26.00813 25.06147-6.15034 3.59701-11.35109 8.63315-17.63464 12.0594-6.61995 3.77784-12.96142 8.44297-20.41214 10.43333-4.57986 1.19154-8.39696-3.70517-9-7.76.93197-6.4725 7.50648-9.37877 12.55828-12.29859 11.2562-6.52717 22.29432-13.57671 31.83488-22.49254 10.21116-9.29429 19.78597-19.38254 27.72184-30.70387 2.75991-2.93668 6.14879-7.11129 10.705-5.575z"/></svg>