<svg height="157" viewBox="0 0 555 157" width="555" xmlns="http://www.w3.org/2000/svg"><path d="m-.33 155v-139.05h.08v-15.95h38.52v15.95 51.22c5.25-5.44 10.47-9.33 15.65-11.67 5.19-2.34 11.32-3.51 18.4-3.51 10.5 0 18.75 3.19 24.76 9.58 6.07 6.39 9.11 16.19 9.11 29.41v64.02h-38.8v-55.39c0-6.33-1.17-10.78-3.51-13.38-2.34-2.65-5.63-3.98-9.86-3.98-4.68 0-8.48 1.77-11.39 5.31-2.9 3.54-4.36 9.9-4.36 19.07v48.37zm164.75-68.1-36.89-3.89c1.39-6.45 3.38-11.51 5.97-15.18 2.66-3.73 6.45-6.95 11.38-9.67 3.55-1.96 8.41-3.48 14.61-4.56 6.2-1.07 12.9-1.61 20.11-1.61 11.57 0 20.87.67 27.89 1.99 7.02 1.27 12.86 3.96 17.54 8.07 3.29 2.84 5.88 6.89 7.78 12.14 1.9 5.18 2.85 10.15 2.85 14.89v44.48c0 4.75.28 8.48.85 11.2.63 2.65 1.96 6.07 3.98 10.24h-36.23c-1.45-2.59-2.4-4.55-2.84-5.88-.45-1.39-.89-3.54-1.33-6.45-5.06 4.87-10.09 8.35-15.08 10.43-6.83 2.79-14.77 4.18-23.81 4.18-12.02 0-21.15-2.79-27.41-8.35-6.2-5.57-9.3-12.43-9.3-20.58 0-7.65 2.25-13.95 6.74-18.88s12.77-8.6 24.85-11c14.48-2.91 23.87-4.93 28.17-6.07 4.3-1.2 8.85-2.75 13.66-4.65 0-4.74-.98-8.06-2.94-9.96s-5.41-2.84-10.34-2.84c-6.33 0-11.07 1.01-14.23 3.03-2.47 1.58-4.46 4.55-5.98 8.92zm33.49 26.46v-6.17c-5.32 1.9-10.85 3.58-16.6 5.03-7.84 2.09-12.81 4.14-14.89 6.17-2.15 2.08-3.23 4.46-3.23 7.11 0 3.04 1.04 5.53 3.13 7.49 2.15 1.9 5.28 2.85 9.39 2.85 4.3 0 8.28-1.04 11.95-3.13 3.73-2.09 6.36-4.62 7.88-7.59 1.58-3.03 2.37-6.95 2.37-11.76zm56.53-32.72v-26.37h93.43v22.57l-50.84 51.79h53.97v26.37h-100.36v-25.04l48.19-49.32zm222.33 29.21v4.36h-77.4c.7 6.2 2.37 10.82 5.03 13.85 3.73 4.37 8.6 6.55 14.61 6.55 3.79 0 7.39-.95 10.81-2.85 2.09-1.2 4.33-3.32 6.73-6.35l38.04 3.51c-5.82 10.11-12.84 17.39-21.06 21.81-8.22 4.36-20.01 6.55-35.38 6.55-13.34 0-23.84-1.87-31.49-5.6-7.65-3.79-14.01-9.77-19.06-17.93-5-8.22-7.5-17.86-7.5-28.93 0-15.74 5.03-28.48 15.08-38.22 10.12-9.74 24.06-14.61 41.83-14.61 14.42 0 25.8 2.18 34.15 6.55 8.35 4.36 14.7 10.68 19.07 18.97 4.36 8.28 6.54 19.06 6.54 32.34zm-77.3-14.13h38.03c-.76-7.46-2.78-12.81-6.07-16.03-3.22-3.23-7.49-4.84-12.8-4.84-6.14 0-11.04 2.43-14.71 7.3-2.34 3.04-3.82 7.56-4.45 13.57zm96.37 59.28v-117h-446.82v-38h485.53v38h-.02v79h20.47v38z" fill="#fff"/></svg>